<svg width="522" height="529" viewBox="0 0 522 529" fill="none" xmlns="http://www.w3.org/2000/svg">
<g clip-path="url(#clip0_3067_3123)">
<mask id="mask0_3067_3123" style="mask-type:luminance" maskUnits="userSpaceOnUse" x="218" y="369" width="90" height="119">
<path d="M307.64 371.79L221.648 369.334L218.355 484.644L304.347 487.1L307.64 371.79Z" fill="white"/>
</mask>
<g mask="url(#mask0_3067_3123)">
<path d="M244.543 379.482C244.543 379.482 227.086 386.041 221.686 408.049C216.288 430.063 227.448 446.197 227.448 446.197C227.448 446.197 229.642 436.507 234.507 431.886C234.507 431.886 233.751 461.117 267.707 486.055C267.707 486.055 269.446 478.02 279.73 462.366C289.543 447.436 287.176 434.312 287.176 434.312C287.176 434.312 294.581 444.551 293.564 451.055C293.564 451.055 309.356 435.93 305.615 415.63C301.87 395.33 288.291 382.854 280.024 378.648C271.759 374.435 244.548 379.482 244.548 379.482L244.543 379.482Z" fill="url(#paint0_radial_3067_3123)"/>
<path d="M249.624 381.2C249.624 381.2 231.245 395.881 233.705 419.872C233.705 419.872 240.855 418.117 247.424 411.491C247.424 411.491 244.52 434.364 262.918 454.771C262.918 454.771 271.139 447.429 274.726 439.516C281.184 425.288 278.403 416.849 278.403 416.849C278.403 416.849 285.383 421.591 287.196 426.901C287.196 426.901 301.056 407.098 279.948 382.781C256.722 356.037 249.623 381.194 249.623 381.194L249.624 381.2Z" fill="url(#paint1_radial_3067_3123)"/>
<path d="M255.427 378.522C250.686 385.122 252.085 393.029 254.33 398.038C257.445 404.999 260.774 408.61 263.143 415.9C270.949 406.582 282.286 392.457 273.382 378.501C264.023 369.72 258.885 369.446 254.906 372.303C252.612 374.773 257.567 375.539 255.427 378.522Z" fill="url(#paint2_radial_3067_3123)"/>
</g>
<mask id="mask1_3067_3123" style="mask-type:luminance" maskUnits="userSpaceOnUse" x="171" y="85" width="189" height="316">
<path d="M359.777 91.4351L180.852 85.8066L171.144 394.399L350.07 400.027L359.777 91.4351Z" fill="white"/>
</mask>
<g mask="url(#mask1_3067_3123)">
<path d="M314.662 291.598C314.662 291.598 372.744 314.764 343.27 388.273C343.27 388.273 340.187 368.115 322.725 356.694C312.385 349.933 305.287 352.301 305.287 352.301C289.988 343.128 290.852 293.295 314.669 291.606L314.662 291.598Z" fill="url(#paint3_linear_3067_3123)"/>
<g style="mix-blend-mode:multiply">
<path d="M314.662 291.598C314.662 291.598 318.494 293.134 323.688 296.644C320.936 308.398 317.022 327.701 321.769 339.709C326.486 351.63 339.072 358.77 342.64 372.903C343.797 377.753 343.999 382.247 343.875 386.713C343.671 387.239 343.482 387.748 343.27 388.273C343.27 388.273 340.187 368.115 322.725 356.694C312.385 349.933 305.287 352.301 305.287 352.301C289.988 343.128 290.852 293.295 314.669 291.606L314.662 291.598Z" fill="#FFFF1A"/>
</g>
<path d="M346.159 336.923C347.576 327.804 337.864 309.145 330.249 306.314C328.842 305.788 327.358 306.875 327.292 308.443C326.971 316.078 340.745 321.136 346.159 336.923Z" fill="#FFFF39"/>
<path d="M240.691 357.785C240.691 357.785 234.903 365.865 228.282 381.419C226.664 385.213 228.723 388.212 232.41 389.701C242.473 393.776 262.286 399.702 289.871 392.795C293.609 391.858 296.971 389.321 296.088 385.406C294.052 376.453 289.462 361.275 280.826 355.564C268.251 347.24 240.699 357.784 240.699 357.784L240.691 357.785Z" fill="url(#paint4_linear_3067_3123)"/>
<path opacity="0.2" d="M280.825 355.555C278.114 353.763 278.421 353.42 274.747 353.09C284.036 365.91 291.183 382.052 289.161 392.439C289.648 392.326 290.117 392.238 290.604 392.116C294.342 391.178 296.971 389.313 296.079 385.406C294.043 376.453 289.454 361.276 280.816 355.564L280.825 355.555Z" fill="white"/>
<path d="M246.782 355.788C239.477 367.339 229.262 385.243 237.021 390.764C240.562 391.914 244.857 393.044 249.809 393.87C246.627 381.276 250.409 368.301 253.137 354.152C250.788 354.678 248.617 355.254 246.782 355.788Z" fill="#689296"/>
<path d="M236.022 344.846C236.022 344.846 230.675 354.51 235.698 360.332C240.722 366.153 284.355 369.541 292.559 363.545C300.753 357.539 289.252 341.381 289.252 341.381C289.252 341.381 247.595 323.064 236.029 344.854L236.022 344.846Z" fill="url(#paint5_linear_3067_3123)"/>
<path opacity="0.2" d="M284.412 366C288.079 365.488 290.978 364.696 292.545 363.535C300.741 357.529 289.239 341.371 289.239 341.371C289.239 341.371 286.082 339.984 281.276 338.434C286.219 347.848 291.233 357.35 284.412 366Z" fill="white"/>
<path d="M213.294 288.409C213.294 288.409 153.87 307.879 178.667 383.095C178.667 383.095 183.011 363.171 201.156 352.87C211.901 346.773 218.836 349.583 218.836 349.583C234.681 341.389 236.951 291.599 213.286 288.417L213.294 288.409Z" fill="url(#paint6_linear_3067_3123)"/>
<g style="mix-blend-mode:multiply">
<path d="M213.294 288.408C213.294 288.408 209.373 289.701 203.969 292.876C205.976 304.781 208.67 324.292 203.177 335.977C197.721 347.578 184.71 353.913 180.262 367.794C178.802 372.561 178.318 377.034 178.161 381.499C178.332 382.037 178.488 382.557 178.667 383.094C178.667 383.094 183.011 363.17 201.156 352.869C211.901 346.772 218.836 349.582 218.836 349.582C234.681 341.388 236.951 291.598 213.286 288.416L213.294 288.408Z" fill="#FFFF1A"/>
</g>
<path d="M270.239 88.6183C270.239 88.6183 212.508 126.616 209.075 235.729C206.996 301.828 214.136 335.894 217.542 348.082C218.352 350.974 221.248 352.601 223.987 351.683C224.086 351.652 224.194 351.613 224.292 351.581C248.928 343.432 275.499 344.269 299.574 353.949C299.68 353.987 299.777 354.033 299.873 354.07C302.549 355.158 305.541 353.716 306.531 350.882C310.689 338.931 319.964 305.381 322.043 239.283C325.475 130.17 270.239 88.6183 270.239 88.6183Z" fill="url(#paint7_linear_3067_3123)"/>
<path d="M312.879 160.372C297.927 109.465 270.234 88.6192 270.234 88.6192C270.234 88.6192 241.009 107.855 222.911 158.262C222.911 158.262 268.415 146.445 312.879 160.381L312.879 160.372Z" fill="url(#paint8_linear_3067_3123)"/>
<path d="M267.066 158.552C266.357 159.757 266.418 161.44 267.945 162.372C269.181 163.131 270.965 162.656 271.693 161.358C272.414 160.059 271.916 158.172 270.645 157.48C269.147 156.661 267.75 157.389 267.067 158.543L267.066 158.552Z" fill="#A7DBD3"/>
<path d="M230.491 159.941C221.825 178.546 209.651 244.961 227.416 344.865C227.674 346.306 229.052 347.225 230.407 346.847C234.256 345.767 237.842 344.704 243.162 343.962C244.494 343.781 245.419 342.471 245.226 341.076C235.118 267.857 239.603 217.177 250.808 157.38C246.692 157.044 236.473 158.43 230.491 159.941Z" fill="#A7DBD3"/>
<path d="M268.92 90.5682C268.364 91.0572 239.475 119.897 232.765 153.382C236.822 151.931 249.119 150.859 252.514 151.197C256.385 131.206 262.51 110.076 268.92 90.5682Z" fill="#FFFF39"/>
<path d="M247.56 159.784C247.54 159.92 247.527 160.058 247.523 160.203C247.494 161.12 248.191 162.378 249.136 162.545C250.43 162.765 251.824 161.412 252.156 160.203C252.47 159.063 251.95 157.649 250.873 157.271C250.088 156.989 249.194 157.295 248.578 157.877C248.022 158.4 247.666 159.041 247.552 159.793L247.56 159.784Z" fill="#A7DBD3"/>
<path d="M228.846 163.022C229.04 163.886 229.773 164.535 230.66 164.409C231.499 164.289 232.175 163.633 232.64 162.893C232.873 162.514 233.075 162.082 233.089 161.637C233.137 160.369 231.617 159.488 230.49 159.942C229.47 160.356 228.694 161.61 228.805 162.755C228.811 162.84 228.824 162.935 228.846 163.022Z" fill="#A7DBD3"/>
<path d="M291.214 161.329C291.227 161.466 291.231 161.604 291.226 161.749C291.197 162.666 290.422 163.878 289.469 163.985C288.163 164.124 286.858 162.684 286.601 161.458C286.36 160.3 286.968 158.921 288.067 158.613C288.868 158.38 289.74 158.743 290.319 159.361C290.841 159.918 291.157 160.58 291.223 161.337L291.214 161.329Z" fill="#A7DBD3"/>
<path d="M309.29 165.553C309.041 166.403 308.269 167.005 307.391 166.823C306.561 166.651 305.928 165.953 305.51 165.185C305.301 164.792 305.127 164.35 305.141 163.903C305.173 162.634 306.744 161.852 307.842 162.375C308.834 162.852 309.53 164.153 309.346 165.289C309.336 165.374 309.317 165.468 309.29 165.553Z" fill="#A7DBD3"/>
<path d="M240.96 347.883C240.96 347.883 236.482 357.747 240.664 360.384C241.819 361.115 249.563 362.715 249.563 362.715C249.563 362.715 245.353 355.761 248.142 347.508L240.967 347.883L240.96 347.883Z" fill="#689296"/>
<path d="M179.021 331.666C178.179 322.475 189.045 304.464 196.822 302.117C198.26 301.681 199.672 302.859 199.639 304.427C199.481 312.068 185.416 316.251 179.021 331.666Z" fill="#FFFF39"/>
<path opacity="0.24" d="M272.043 90.1262C302.614 130.875 316.17 172.033 314.092 238.106C311.663 315.297 301.223 353.907 291.261 350.47C294.059 351.339 296.844 352.32 299.585 353.417C299.69 353.455 299.787 353.501 299.884 353.538C302.56 354.627 305.535 353.717 306.524 350.891C310.682 338.94 319.957 305.39 322.036 239.292C325.096 142.016 281.54 98.4389 272.043 90.1262Z" fill="white"/>
<path d="M283.161 228.962C293.873 218.419 294.428 200.796 284.399 189.6C274.371 178.404 257.558 177.875 246.845 188.419C236.133 198.962 235.578 216.585 245.607 227.781C255.635 238.977 272.449 239.505 283.161 228.962Z" fill="#A7DBD3"/>
<g style="mix-blend-mode:multiply">
<path d="M284.318 234.607C295.03 224.064 295.585 206.44 285.555 195.245C275.528 184.049 258.713 183.52 248.001 194.064C237.289 204.607 236.735 222.231 246.763 233.426C256.792 244.622 273.605 245.151 284.318 234.607Z" fill="#D5D9DB"/>
</g>
<path d="M265.375 239.37C280.042 239.832 292.323 227.744 292.806 212.372C293.29 197.001 281.793 184.165 267.127 183.704C252.46 183.242 240.18 195.33 239.696 210.702C239.212 226.073 250.709 238.909 265.375 239.37Z" fill="url(#paint9_radial_3067_3123)"/>
<path d="M265.634 231.141C275.964 231.467 284.614 222.952 284.955 212.126C285.295 201.299 277.197 192.258 266.867 191.933C256.537 191.607 247.887 200.122 247.547 210.949C247.206 221.776 255.304 230.816 265.634 231.141Z" fill="url(#paint10_radial_3067_3123)"/>
<path d="M266.867 191.933C256.538 191.608 247.887 200.122 247.547 210.949C247.206 221.775 255.304 230.817 265.634 231.141C256.776 230.863 249.841 223.111 250.133 213.836C250.424 204.561 257.842 197.261 266.691 197.539C275.54 197.817 282.483 205.57 282.191 214.844C281.899 224.119 274.482 231.42 265.634 231.141C275.963 231.466 284.613 222.952 284.954 212.126C285.295 201.299 277.196 192.258 266.867 191.933Z" fill="#4AADD8"/>
<path d="M265.594 232.539C254.545 232.191 245.853 222.488 246.217 210.907C246.581 199.326 255.866 190.188 266.915 190.536C277.964 190.883 286.655 200.587 286.291 212.168C285.927 223.749 276.643 232.886 265.594 232.539ZM266.827 193.33C257.25 193.029 249.207 200.953 248.892 210.982C248.577 221.012 256.114 229.426 265.682 229.727C275.251 230.028 283.301 222.104 283.618 212.075C283.933 202.045 276.396 193.631 266.827 193.33Z" fill="#395154"/>
<path d="M243.512 202.97C243.512 202.97 243.539 202.859 243.587 202.663C243.642 202.46 243.725 202.152 243.851 201.787C244.096 201.049 244.489 200.006 245.091 198.815C245.239 198.519 245.405 198.206 245.563 197.886C245.744 197.574 245.934 197.263 246.132 196.934C246.505 196.268 246.993 195.623 247.472 194.943C247.984 194.29 248.513 193.611 249.122 192.978C249.739 192.363 250.325 191.686 251.03 191.15L252.047 190.307C252.407 190.061 252.766 189.807 253.126 189.56C253.83 189.051 254.595 188.672 255.328 188.291C256.045 187.876 256.805 187.642 257.502 187.373C257.85 187.246 258.189 187.111 258.527 187.011C258.865 186.935 259.203 186.86 259.517 186.792C260.152 186.658 260.729 186.514 261.247 186.461C261.772 186.426 262.223 186.397 262.592 186.375C263.337 186.346 263.756 186.326 263.756 186.326C263.977 186.315 264.169 186.501 264.177 186.734C264.187 186.931 264.059 187.107 263.877 187.162L263.828 187.177C263.828 187.177 263.431 187.293 262.737 187.495C262.39 187.587 261.977 187.703 261.498 187.824C261.02 187.955 260.512 188.197 259.942 188.394C259.66 188.496 259.362 188.607 259.063 188.717C258.773 188.862 258.465 189.008 258.157 189.161C257.534 189.459 256.878 189.755 256.243 190.174C255.917 190.369 255.591 190.565 255.258 190.76C254.925 190.947 254.63 191.221 254.303 191.442C253.985 191.673 253.658 191.902 253.332 192.141L252.415 192.936C251.784 193.448 251.225 194.031 250.651 194.588C250.093 195.163 249.567 195.764 249.057 196.332C248.58 196.942 248.088 197.493 247.668 198.072C247.234 198.633 246.847 199.187 246.488 199.708C246.128 200.22 245.833 200.718 245.542 201.137C245.282 201.575 245.033 201.954 244.851 202.274C244.669 202.594 244.522 202.838 244.419 203.006C244.323 203.184 244.271 203.276 244.271 203.276L244.271 203.294C244.149 203.505 243.884 203.582 243.684 203.456C243.515 203.355 243.44 203.147 243.487 202.96L243.512 202.97Z" fill="#86B5B7"/>
<g opacity="0.8">
<path d="M290.495 216.246C290.495 216.246 290.483 216.358 290.451 216.563C290.421 216.776 290.37 217.075 290.285 217.45C290.114 218.208 289.867 219.289 289.402 220.528C289.286 220.841 289.169 221.164 289.044 221.504C288.903 221.833 288.753 222.172 288.603 222.519C288.318 223.223 287.92 223.922 287.536 224.657C287.113 225.373 286.68 226.114 286.175 226.819C285.646 227.506 285.164 228.255 284.547 228.888L283.665 229.863C283.344 230.163 283.023 230.461 282.711 230.752C282.095 231.358 281.4 231.852 280.738 232.328C280.1 232.849 279.393 233.195 278.742 233.57C278.418 233.748 278.108 233.936 277.793 234.09C277.47 234.216 277.155 234.344 276.856 234.463C276.259 234.693 275.711 234.933 275.216 235.072C274.712 235.193 274.275 235.309 273.912 235.392C273.187 235.566 272.783 235.648 272.783 235.648C272.618 235.676 272.466 235.569 272.431 235.405C272.402 235.257 272.481 235.115 272.605 235.058L272.638 235.042C272.638 235.042 273.02 234.874 273.692 234.603C274.023 234.468 274.429 234.309 274.893 234.127C275.35 233.936 275.835 233.624 276.384 233.349C276.658 233.212 276.933 233.058 277.232 232.913C277.508 232.732 277.793 232.545 278.085 232.348C278.67 231.963 279.296 231.571 279.877 231.066C280.179 230.826 280.482 230.587 280.785 230.339C281.095 230.1 281.358 229.791 281.654 229.517C281.94 229.234 282.236 228.96 282.531 228.678L283.346 227.752C283.905 227.151 284.385 226.471 284.888 225.826C285.368 225.164 285.807 224.482 286.236 223.835C286.626 223.153 287.039 222.513 287.363 221.871C287.709 221.238 288.008 220.621 288.287 220.047C288.567 219.481 288.781 218.939 289.009 218.466C289.196 217.982 289.381 217.567 289.506 217.219C289.632 216.872 289.739 216.6 289.802 216.414C289.865 216.227 289.901 216.125 289.901 216.125C289.955 215.946 290.138 215.858 290.3 215.915C290.446 215.97 290.523 216.119 290.502 216.272L290.495 216.246Z" fill="#689296"/>
</g>
<g style="mix-blend-mode:multiply">
<path d="M277.125 218.22C278.308 221.227 276.366 224.932 272.788 226.492C269.203 228.053 265.342 226.885 264.152 223.878C262.969 220.873 264.912 217.167 268.489 215.606C272.075 214.046 275.934 215.214 277.125 218.22Z" fill="#B8E6F4"/>
</g>
<path d="M260.704 201.348C261.801 202.902 261.193 205.328 259.339 206.762C257.493 208.206 255.097 208.113 254 206.56C252.902 205.007 253.511 202.58 255.365 201.146C257.211 199.703 259.608 199.795 260.704 201.348Z" fill="white"/>
<path d="M267.032 199.111C267.326 200.184 266.527 201.368 265.246 201.758C263.965 202.146 262.689 201.591 262.396 200.518C262.101 199.445 262.9 198.26 264.181 197.871C265.463 197.483 266.738 198.038 267.032 199.111Z" fill="white"/>
<path d="M228.282 381.421C226.665 385.214 228.45 389.621 232.137 391.11C242.2 395.184 263.285 401.03 290.861 394.133C294.599 393.195 296.972 389.322 296.08 385.407C296.001 385.062 286.762 392.236 260.732 390.834C232.022 389.287 228.398 381.15 228.282 381.43L228.282 381.421Z" fill="#40595D"/>
<path d="M233.592 355.006C233.738 356.881 234.326 358.752 235.692 360.332C240.716 366.152 284.349 369.541 292.553 363.545C294.48 362.129 295.312 360.157 295.463 357.964C288.334 367.265 239.459 362.406 233.592 355.006Z" fill="#40595D"/>
<path d="M265.73 158.511C265.021 159.716 265.083 161.4 266.609 162.331C267.845 163.091 269.628 162.616 270.357 161.317C271.077 160.018 270.579 158.132 269.308 157.44C267.812 156.62 266.413 157.349 265.73 158.503L265.73 158.511Z" fill="#507077"/>
<path d="M246.068 159.909C246.047 160.046 246.035 160.182 246.031 160.328C246.001 161.246 246.699 162.502 247.643 162.67C248.938 162.891 250.331 161.536 250.665 160.328C250.978 159.188 250.458 157.773 249.381 157.396C248.596 157.114 247.702 157.421 247.086 158.002C246.529 158.525 246.174 159.165 246.06 159.917L246.068 159.909Z" fill="#507077"/>
<path d="M227.768 162.988C227.961 163.853 228.694 164.502 229.583 164.375C230.421 164.256 231.097 163.599 231.562 162.859C231.795 162.48 231.997 162.049 232.011 161.603C232.059 160.335 230.54 159.454 229.412 159.909C228.392 160.322 227.616 161.576 227.727 162.721C227.732 162.807 227.746 162.902 227.768 162.988Z" fill="#507077"/>
<path d="M289.879 161.286C289.89 161.424 289.894 161.56 289.89 161.707C289.861 162.624 289.086 163.835 288.133 163.942C286.828 164.081 285.522 162.642 285.266 161.415C285.024 160.258 285.632 158.879 286.73 158.57C287.532 158.338 288.405 158.7 288.982 159.318C289.505 159.875 289.82 160.537 289.887 161.295L289.879 161.286Z" fill="#507077"/>
<path d="M307.952 165.51C307.705 166.36 306.933 166.962 306.054 166.78C305.225 166.608 304.592 165.91 304.174 165.142C303.965 164.749 303.791 164.306 303.805 163.861C303.836 162.592 305.408 161.809 306.505 162.332C307.498 162.81 308.193 164.111 308.011 165.246C308 165.331 307.98 165.425 307.952 165.51Z" fill="#507077"/>
<mask id="mask2_3067_3123" style="mask-type:luminance" maskUnits="userSpaceOnUse" x="193" y="138" width="130" height="134">
<path d="M247.605 138.244L193.297 224.584L268.633 271.97L322.941 185.63L247.605 138.244Z" fill="white"/>
</mask>
<g mask="url(#mask2_3067_3123)">
<path d="M200.464 215.111C199.892 216.239 199.72 217.605 200.049 218.414C200.739 220.111 203.552 223.121 206.49 225.302C208.089 226.483 208.476 226.741 209.778 227.487C215.495 230.742 220.149 231.71 226.159 230.903C226.853 230.811 227.637 230.679 227.906 230.608C228.169 230.535 228.418 230.495 228.454 230.518C228.486 230.537 228.625 230.799 228.754 231.098C229.807 233.459 234.637 240.206 237.956 243.941C238.932 245.034 239.061 245.252 239.102 245.866C239.145 246.59 239.274 247.397 239.568 248.895C240.259 252.371 240.366 252.672 241.133 253.153C241.823 253.587 242.485 253.728 243.648 253.697C244.359 253.681 247.481 252.958 248.518 252.573C249.433 252.234 250.308 251.82 251.386 251.219C251.821 250.977 252.249 250.746 252.332 250.704C252.608 250.566 253.512 250.598 255.073 250.795C256.743 251.003 257.989 251.033 259.356 250.884C259.556 250.864 260.036 250.824 260.416 250.795C263.211 250.615 267.774 249.544 271.236 248.259C274.103 247.196 277.071 245.718 279.609 244.098C281.819 242.687 285.218 239.868 287.394 237.651C287.682 237.353 288.131 236.903 288.388 236.644C289.599 235.431 290.408 234.525 291.727 232.901C292.066 232.475 292.456 232.016 292.585 231.88C292.893 231.552 296.722 225.476 297.038 224.811C297.161 224.547 297.446 223.957 297.673 223.504C297.897 223.044 298.204 222.408 298.352 222.081C298.5 221.753 298.687 221.341 298.776 221.165C299.203 220.279 300.609 216.583 300.988 215.348C301.332 214.215 301.874 211.79 302.125 210.264C302.267 209.396 302.435 208.405 302.501 208.069C302.562 207.731 302.65 207.017 302.684 206.48C302.724 205.945 302.795 205.039 302.84 204.473C302.919 203.579 302.918 200.661 302.841 199.138C302.79 198.024 302.554 196.273 302.242 194.632C302.152 194.155 302.051 193.532 302.019 193.25C301.922 192.427 301.055 189.001 300.638 187.802C300.543 187.54 300.414 187.124 300.339 186.888C300.266 186.647 300.183 186.434 300.157 186.418C300.136 186.405 300.075 186.273 300.026 186.133C299.791 185.426 298.957 183.624 298.46 182.759C298.319 182.511 298.119 182.153 298.015 181.972C297.913 181.791 297.587 181.296 297.298 180.883C296.621 179.913 296.547 179.699 296.591 178.95C296.661 177.804 296.566 176.001 296.345 174.411C296.206 173.446 295.697 171.129 295.609 171.074C295.578 171.054 295.508 170.902 295.448 170.734C295.34 170.411 294.772 169.474 294.497 169.141C294.17 168.753 293.28 168.536 292.425 168.629C292.161 168.659 290.902 168.949 289.637 169.27C286.951 169.954 286.026 170.149 285.65 170.115C285.164 170.071 284.006 169.844 280.865 169.182C277.112 168.389 272.223 167.737 269.654 167.674C269.123 167.667 268.614 167.637 268.523 167.609C268.261 167.532 268.115 167.259 267.933 166.477C267.61 165.119 267.456 164.696 266.262 161.963C265.819 160.944 265.152 159.865 263.742 157.889C262.927 156.737 261.637 155.236 260.851 154.509C260.734 154.408 260.47 154.161 260.256 153.961C259.25 153.032 258.395 152.369 256.965 151.435C255.833 150.693 255.379 150.429 254.805 150.156C254.403 149.968 253.794 149.672 253.451 149.493C251.955 148.733 250.548 148.131 248.921 147.557C247.067 146.907 246.083 146.701 245.011 146.739C244.394 146.764 244.281 146.795 243.872 147.009C243.02 147.468 242.924 147.574 241.663 149.59C240.662 151.181 240.525 151.422 240.288 152.028C240.145 152.394 239.959 152.851 239.877 153.039C239.428 154.085 238.829 156.198 238.502 157.914C238.182 159.572 237.908 162.317 237.96 163.293C237.969 163.495 237.995 164.179 238.014 164.815C238.029 165.448 238.076 166.211 238.11 166.515C238.145 166.814 238.172 167.208 238.182 167.389C238.206 168.064 238.517 169.718 238.916 171.232C239.136 172.089 239.42 173.167 239.535 173.617C239.654 174.07 239.813 174.599 239.892 174.785C239.975 174.975 240.025 175.218 240.013 175.326C239.992 175.509 239.956 175.545 239.37 175.901C238.101 176.678 236.835 177.689 235.148 179.27C233.465 180.853 233.193 181.147 231.885 182.814C231.053 183.872 229.175 186.661 228.353 188.06C227.112 190.182 226.965 190.461 226.621 191.297C226.518 191.552 226.379 191.841 226.317 191.94C226.19 192.142 225.758 193.185 225.472 193.985C225.292 194.489 225.069 195.154 224.609 196.563C224.342 197.39 223.913 199.566 223.817 200.593C223.776 201.061 223.722 201.469 223.698 201.506C223.679 201.537 223.474 201.575 223.241 201.588C223.012 201.596 222.651 201.63 222.449 201.664C221.879 201.754 221.265 201.833 220.716 201.879C220.005 201.94 218.626 202.248 217.647 202.562C217.192 202.711 216.502 202.924 216.12 203.024C215.325 203.243 214.615 203.522 213.234 204.155C209.825 205.735 207.035 207.55 204.817 209.639C203.417 210.957 202.602 211.874 201.825 213.004C201.558 213.396 201.201 213.918 201.026 214.172C200.856 214.42 200.601 214.848 200.465 215.11L200.464 215.111Z" fill="#A0A0A0"/>
<path d="M227.119 228.788C227.119 228.788 224.582 207.425 226.056 202.379C227.531 197.332 195.987 212.478 199.438 218.22C202.888 223.961 218.428 235.579 227.119 228.788Z" fill="#7B7C7C"/>
<path d="M266.265 166.555C266.265 166.555 245.91 173.518 241.999 177.033C238.089 180.547 238.082 145.555 244.752 146.18C251.421 146.805 268.622 155.78 266.265 166.554L266.265 166.555Z" fill="#7B7C7C"/>
<path d="M236.492 238.334C236.492 238.334 229.377 221.879 236.517 210.837C243.655 199.795 254.131 207.334 256.486 203.443C258.841 199.549 251.176 185.326 255.418 180.782C259.661 176.238 275.724 166.373 285.76 171.49C295.796 176.608 306.462 197.477 289.344 224.69C272.228 251.904 246.502 249.035 246.502 249.035L241.105 245.64L236.492 238.334Z" fill="white"/>
<path d="M199.068 215.461C198.482 216.616 198.306 218.013 198.643 218.841C199.349 220.577 202.226 223.658 205.23 225.889C206.866 227.096 207.262 227.361 208.595 228.123C214.444 231.453 219.205 232.443 225.353 231.616C226.063 231.52 226.866 231.386 227.14 231.314C227.41 231.238 227.664 231.197 227.702 231.221C227.733 231.241 227.875 231.509 228.008 231.816C229.085 234.231 234.025 241.133 237.419 244.955C238.417 246.073 238.55 246.296 238.592 246.925C238.636 247.666 238.767 248.49 239.067 250.024C239.773 253.581 239.883 253.888 240.668 254.38C241.373 254.824 242.051 254.968 243.24 254.936C243.968 254.919 247.162 254.179 248.223 253.785C249.159 253.438 250.055 253.014 251.158 252.4C251.602 252.152 252.04 251.915 252.126 251.872C252.407 251.73 253.333 251.762 254.93 251.965C256.638 252.177 257.913 252.207 259.311 252.054C259.516 252.034 260.007 251.994 260.396 251.964C263.255 251.779 267.924 250.682 271.467 249.367C274.399 248.278 277.437 246.764 280.032 245.107C282.295 243.662 285.773 240.777 287.999 238.508C288.295 238.204 288.754 237.742 289.018 237.478C290.256 236.236 291.085 235.308 292.433 233.646C292.781 233.211 293.18 232.741 293.312 232.601C293.627 232.265 297.546 226.047 297.87 225.368C297.996 225.097 298.286 224.493 298.519 224.03C298.748 223.558 299.061 222.908 299.214 222.572C299.365 222.237 299.556 221.815 299.648 221.635C300.085 220.729 301.524 216.947 301.912 215.683C302.265 214.524 302.819 212.043 303.076 210.481C303.222 209.592 303.393 208.578 303.462 208.235C303.524 207.889 303.614 207.157 303.649 206.607C303.69 206.061 303.763 205.133 303.81 204.554C303.89 203.639 303.889 200.653 303.811 199.095C303.759 197.956 303.518 196.163 303.199 194.484C303.107 193.996 303.004 193.359 302.971 193.07C302.872 192.228 301.986 188.722 301.559 187.496C301.462 187.227 301.33 186.802 301.253 186.561C301.179 186.313 301.093 186.096 301.068 186.08C301.046 186.066 300.984 185.931 300.934 185.787C300.693 185.064 299.84 183.221 299.332 182.336C299.188 182.083 298.983 181.715 298.878 181.53C298.772 181.346 298.44 180.839 298.144 180.416C297.452 179.423 297.375 179.204 297.421 178.438C297.493 177.266 297.396 175.422 297.17 173.793C297.029 172.806 296.508 170.436 296.418 170.379C296.386 170.359 296.314 170.203 296.253 170.031C296.142 169.701 295.561 168.742 295.281 168.401C294.946 168.005 294.036 167.782 293.162 167.878C292.891 167.909 291.603 168.205 290.307 168.535C287.56 169.235 286.614 169.434 286.229 169.4C285.731 169.355 284.547 169.123 281.334 168.446C277.494 167.636 272.492 166.97 269.863 166.906C269.321 166.898 268.8 166.868 268.707 166.84C268.439 166.76 268.29 166.48 268.105 165.681C267.774 164.291 267.616 163.858 266.395 161.062C265.942 160.019 265.261 158.915 263.818 156.894C262.984 155.715 261.665 154.179 260.861 153.436C260.741 153.331 260.47 153.079 260.252 152.875C259.224 151.924 258.347 151.247 256.886 150.29C255.728 149.532 255.263 149.261 254.677 148.982C254.265 148.79 253.641 148.487 253.291 148.303C251.761 147.527 250.321 146.911 248.656 146.324C246.76 145.659 245.753 145.449 244.657 145.487C244.026 145.514 243.91 145.545 243.491 145.764C242.619 146.234 242.521 146.343 241.231 148.406C240.206 150.034 240.067 150.28 239.824 150.9C239.677 151.276 239.486 151.743 239.403 151.935C238.944 153.006 238.33 155.168 237.994 156.925C237.667 158.621 237.387 161.43 237.439 162.428C237.449 162.636 237.475 163.335 237.495 163.986C237.509 164.634 237.558 165.415 237.591 165.726C237.628 166.031 237.656 166.435 237.666 166.619C237.69 167.31 238.008 169.003 238.416 170.553C238.641 171.429 238.931 172.532 239.048 172.993C239.171 173.456 239.333 173.997 239.413 174.188C239.498 174.382 239.55 174.63 239.538 174.742C239.516 174.929 239.479 174.964 238.879 175.33C237.58 176.126 236.286 177.161 234.559 178.778C232.837 180.399 232.559 180.699 231.22 182.404C230.368 183.488 228.447 186.342 227.605 187.774C226.335 189.946 226.186 190.232 225.833 191.086C225.728 191.347 225.585 191.644 225.522 191.745C225.392 191.953 224.95 193.019 224.657 193.838C224.473 194.353 224.245 195.035 223.774 196.476C223.501 197.322 223.061 199.549 222.962 200.6C222.919 201.079 222.864 201.497 222.841 201.534C222.82 201.566 222.611 201.605 222.373 201.619C222.138 201.627 221.769 201.662 221.563 201.696C220.979 201.789 220.351 201.869 219.789 201.917C219.062 201.979 217.651 202.295 216.65 202.616C216.184 202.768 215.478 202.986 215.087 203.089C214.274 203.313 213.547 203.598 212.133 204.247C208.646 205.864 205.791 207.723 203.522 209.86C202.089 211.21 201.254 212.149 200.461 213.305C200.187 213.705 199.821 214.24 199.643 214.499C199.468 214.753 199.208 215.191 199.068 215.46L199.068 215.461ZM244.739 149.061C245.26 148.972 247.642 149.512 248.99 150.026C251.049 150.809 253.955 152.362 255.669 153.589C257.395 154.83 259.276 156.637 260.617 158.349C261.458 159.421 262.684 161.366 263.313 162.623C264.166 164.325 264.967 166.285 264.896 166.492C264.83 166.689 264.805 166.696 264.208 166.631C263.562 166.567 262.178 166.603 261.862 166.693C261.551 166.789 261.183 166.787 261.034 166.693C260.955 166.643 260.932 166.526 260.962 166.269C261.01 165.743 260.895 165.246 260.538 164.45C259.924 163.061 258.88 161.617 257.236 159.892C255.603 158.174 254.83 157.569 252.201 155.915C250.444 154.817 250.052 154.594 249.786 154.523C249.608 154.477 249.388 154.391 249.292 154.332C249.202 154.274 249.113 154.241 249.099 154.262C249.083 154.288 248.932 154.446 248.759 154.627C247.99 155.414 247.192 157.058 246.624 159.033C245.85 161.732 245.901 164.579 246.791 168.468C246.945 169.15 247.041 169.434 247.47 170.491C247.876 171.482 248.547 172.506 248.966 172.77C249.231 172.936 249.583 172.847 250.541 172.371C252.805 171.24 254.744 170.744 258.553 170.309C260.7 170.07 265.285 170.012 267.842 170.203C269.066 170.29 271.786 170.611 272.883 170.796C273.919 170.972 274.697 171.038 275.348 171.016C276.313 170.985 277.192 171.106 279.609 171.624C281.516 172.037 283.146 172.432 283.279 172.515C283.327 172.544 283.351 172.59 283.338 172.611C283.325 172.632 282.985 172.76 282.583 172.894C282.18 173.027 281.452 173.304 280.961 173.507C278.534 174.521 278.051 174.715 276.708 175.215C273.403 176.448 272.747 176.727 270.673 177.732C267.955 179.053 266.161 180.154 264.456 181.548C262.47 183.165 261.156 184.701 259.446 187.384C258.657 188.64 258.524 188.875 258.246 189.563C257.288 191.909 257.078 193.114 256.902 197.274C256.787 199.891 256.675 200.763 256.356 201.41C256.241 201.641 256.045 202.105 255.925 202.438C255.605 203.299 255.048 204.255 254.59 204.748C254.315 205.043 254.23 205.167 254.235 205.252C254.274 205.508 252.896 206.371 250.871 207.356C247.336 209.084 246.176 209.787 245.011 210.912C243.643 212.228 242.292 214.281 241.061 216.91C239.473 220.279 239.005 222.74 238.887 228.266C238.835 230.559 238.893 231.642 239.201 234.257C239.355 235.565 239.597 238.45 239.657 239.669C239.689 240.336 239.738 241.221 239.795 241.978L239.81 242.203L239.589 242.012C238.91 241.421 237.725 240.015 236.495 238.336C235.371 236.796 234.879 236.048 234.744 235.666C234.618 235.312 234.432 235.032 233.783 234.23C233.096 233.382 232.681 232.772 231.771 231.278C231.354 230.6 230.959 229.959 230.888 229.861C230.504 229.307 229.805 227.62 229.383 226.233C229.083 225.228 228.623 224.196 227.914 222.925C227.228 221.698 226.945 221.068 226.53 219.87C225.918 218.104 225.341 214.717 225.205 212.159C225.177 211.651 225.138 211.181 225.111 211.12C225.044 210.921 224.759 210.787 224.112 210.662C223.074 210.455 222.314 210.452 220.807 210.649C219.43 210.829 218.356 211.113 216.798 211.708C214.038 212.756 211.888 214.094 210.323 215.723C209.818 216.245 209.662 216.458 209.101 217.339C208.379 218.474 208.384 218.454 208.657 218.902C208.838 219.201 209.184 219.546 209.756 219.987L210.131 220.274L209.773 220.101C209.43 219.93 209.211 219.903 209.24 220.033C209.243 220.073 209.461 220.246 209.718 220.424L210.19 220.743L210.251 220.587C210.323 220.403 210.251 220.364 211.719 221.393C212.992 222.275 214.66 223.219 215.728 223.662C217.573 224.421 220.174 224.928 221.981 224.868C222.717 224.849 224.377 224.549 224.544 224.401C224.685 224.282 224.736 224.344 224.877 224.79C225.173 225.718 226.051 227.414 226.426 227.783C226.511 227.86 226.577 227.953 226.575 227.981C226.574 228.04 225.147 228.264 224.346 228.325C224.06 228.346 223.166 228.378 222.362 228.399C219.045 228.489 216.197 227.901 212.931 226.463C210.749 225.499 207.578 223.392 205.632 221.605C204.744 220.794 202.915 218.788 202.194 217.831L201.832 217.358L202.387 216.488C203.702 214.433 205.546 212.429 207.497 210.938C209.647 209.296 212.513 207.645 214.511 206.889C215.992 206.335 218.291 205.746 220.383 205.384C222.007 205.105 222.194 205.104 222.617 205.37C223.178 205.723 224.321 205.929 225.281 205.85C225.554 205.828 225.72 205.776 225.767 205.702C225.807 205.638 225.853 205.258 225.873 204.863C225.977 202.818 226.077 201.975 226.398 200.431C227.044 197.287 227.866 194.922 229.448 191.653C230.293 189.912 232.867 186.042 234.538 183.996C236.344 181.796 238.919 179.523 241.621 177.733C243.65 176.388 244.535 175.747 244.685 175.508C244.795 175.332 244.712 175.005 244.438 174.572C244.2 174.185 244.118 174.103 243.617 173.759C242.997 173.324 243.034 173.37 242.567 172.348C242.132 171.406 241.967 170.893 241.604 169.365C241.001 166.832 240.756 163.87 240.929 161.067C241.01 159.692 241.139 158.734 241.464 157.207C241.821 155.486 242.199 154.215 242.758 152.881C242.937 152.444 244.272 149.674 244.538 149.18C244.563 149.129 244.652 149.081 244.738 149.062L244.739 149.061ZM245.567 219.432C246.018 218.914 246.312 218.645 246.678 218.43C247.004 218.227 247.506 218.088 247.738 218.131C247.926 218.16 247.941 218.148 248.36 217.601C249.052 216.7 249.867 216.18 251.026 215.914C253.087 215.435 254.764 216.037 255.747 217.591C256.189 218.299 256.287 218.874 256.151 219.947C255.967 221.332 255.322 222.418 254.324 223.016C253.656 223.421 252.558 223.636 251.756 223.525C250.473 223.342 249.083 222.401 248.377 221.229C248.233 220.989 248.091 220.722 248.068 220.641C248.022 220.501 248.016 220.497 247.991 220.621C247.975 220.694 247.862 221.038 247.737 221.39C247.098 223.18 246.936 224.756 247.246 226.133C247.609 227.742 248.329 228.938 249.553 229.99C250.502 230.81 251.208 231.181 252.432 231.504C253.765 231.853 255.009 231.862 256.425 231.527C258.819 230.954 260.701 229.315 261.452 227.158C261.978 225.639 262.086 223.798 261.73 222.364C261.419 221.12 260.734 220.022 259.317 218.499C258.417 217.531 258.399 217.49 258.924 217.361C259.464 217.231 259.86 217.317 260.447 217.701C261.076 218.112 261.686 218.659 262.036 219.139C262.844 220.242 263.419 221.443 263.595 222.408C264.051 224.811 263.905 228.055 263.278 229.533C262.836 230.577 261.762 231.944 260.659 232.862C260.193 233.251 259.06 233.935 258.329 234.263C257.618 234.581 256.449 234.901 255.653 235.001C254.039 235.205 251.914 234.9 250.33 234.246C248.94 233.668 247.292 232.432 246.196 231.141C245.709 230.574 244.854 229.182 244.487 228.379C243.796 226.867 243.583 225.055 243.869 223.14C244.074 221.769 244.676 220.461 245.567 219.432ZM266.643 185.924C267.222 185.285 267.686 184.878 268.296 184.483C270.222 183.243 272.642 182.7 275.121 182.945C278.194 183.243 280.798 184.747 282.516 187.202C283.025 187.931 283.505 188.782 283.782 189.469C284.185 190.451 284.471 192.041 284.44 193.114C284.409 194.127 283.92 196.129 283.42 197.241C282.757 198.741 281.418 200.142 279.57 201.29C278.241 202.11 277.019 202.537 275.719 202.617C273.54 202.755 271.625 202.435 270.34 201.715C269.695 201.354 269.525 201.189 269.494 200.849C269.444 200.365 269.912 200.139 270.512 200.36C271.411 200.695 273.121 200.939 274.285 200.899C276.18 200.836 277.215 200.484 278.494 199.476C279.445 198.715 280.032 198.029 280.462 197.156C281.291 195.486 281.491 193.747 281.038 192.044C280.599 190.378 279.987 189.422 278.563 188.125C278.065 187.67 277.925 187.576 277.46 187.35C276.058 186.676 274.569 186.385 273.036 186.484C271.216 186.601 269.447 187.45 267.905 188.961C267.637 189.223 267.328 189.512 267.217 189.597C267.101 189.687 267.019 189.77 267.024 189.773C267.035 189.78 267.177 189.72 267.339 189.637C267.687 189.448 268.111 189.41 268.761 189.492C269.538 189.586 269.946 189.724 270.473 190.063C271.794 190.902 272.686 192.517 272.563 193.843C272.473 194.857 271.954 195.845 271.198 196.447C270.406 197.084 269.356 197.531 268.62 197.536C267.45 197.551 266.121 196.759 265.507 195.689C264.751 194.375 264.577 193.077 264.799 190.49C264.891 189.449 265.017 188.778 265.256 188.14C265.453 187.603 266.177 186.44 266.643 185.924ZM269.207 210.547C270.165 209.426 271.977 207.825 273.027 207.179C273.781 206.71 274.202 206.581 275.933 206.274C277.399 206.015 279.295 205.514 280.346 205.113C281.527 204.66 283.966 203.438 285.307 202.624C287.249 201.441 288.908 200.062 290.349 198.428C291.439 197.19 291.767 196.75 292.55 195.505C293.335 194.259 293.629 193.673 294.39 191.84C294.617 191.279 294.873 190.718 294.954 190.59C295.088 190.378 295.933 188.458 296.083 187.713C296.154 187.342 296.263 186.534 296.333 185.918C296.4 185.305 296.46 184.786 296.467 184.776C296.513 184.701 297.336 186.332 297.75 187.321C298.234 188.48 298.918 190.344 299.133 191.072C299.756 193.256 300.228 195.974 300.384 198.337C300.457 199.408 300.529 201.645 300.523 202.488C300.485 206.37 299.749 211.197 298.644 214.86C297.718 217.919 297.388 218.773 295.998 221.664C294.315 225.174 291.838 228.972 288.799 232.698C287.189 234.67 285.4 236.457 282.819 238.666C280.567 240.6 278.13 242.276 275.427 243.762C273.011 245.087 271.212 245.843 268.329 246.747C267.284 247.078 263.959 247.839 262.826 248.017C260.71 248.336 257.826 248.348 257.754 248.028C257.742 247.999 257.944 247.807 258.193 247.599C258.717 247.178 261.157 244.168 261.152 244.141C261.143 244.121 261.206 244.057 261.279 243.998C261.726 243.663 262.998 242.124 263.934 240.789C264.885 239.441 265.924 237.332 266.448 235.722C267.3 233.064 267.836 229.153 267.765 226.115C267.728 224.658 267.63 224.002 267.052 221.358C266.485 218.744 266.43 218.278 266.57 217.081C266.709 215.942 267.191 214.093 267.635 213.034C267.898 212.405 268.689 211.149 269.207 210.547Z" fill="black"/>
<path d="M233.626 191.603C233.569 191.797 233.589 191.906 233.699 192.095C233.83 192.311 233.946 192.398 234.908 192.997C235.77 193.531 236.086 193.699 236.56 193.873C237.577 194.244 237.782 194.188 238.282 193.381C238.606 192.856 238.742 192.474 238.708 192.222C238.659 191.924 238.121 191.474 236.823 190.658C235.525 189.841 234.994 189.59 234.825 189.706C234.649 189.833 233.7 191.33 233.626 191.603Z" fill="black"/>
<path d="M237.484 186.94C237.368 187.195 237.37 187.203 237.586 187.436C237.716 187.584 238.228 187.958 238.879 188.39C240.356 189.371 240.715 189.47 241.379 189.071C241.715 188.866 242.148 188.345 242.306 187.939C242.411 187.678 242.344 187.562 241.778 186.944C240.958 186.051 239.674 185.058 239.234 184.981C238.836 184.908 237.97 185.887 237.484 186.94Z" fill="black"/>
<path d="M231.812 196.37C231.465 197.488 231.515 197.632 232.485 198.183C233.398 198.705 234.335 198.944 234.895 198.807C235.33 198.702 235.586 198.462 236.126 197.672C236.51 197.097 236.593 196.941 236.568 196.851C236.424 196.412 233.772 194.878 233.049 194.816C232.614 194.78 232.109 195.405 231.812 196.37Z" fill="black"/>
<path d="M251.098 182.69C251.041 182.898 250.987 183.184 250.976 183.319C250.946 183.672 251.174 184.58 251.367 184.895C251.736 185.483 252.452 185.911 253.311 186.049C254.167 186.194 254.441 186.04 254.853 185.208C254.994 184.925 255.279 184.414 255.493 184.072C255.972 183.312 256.385 182.903 257.382 182.2C258.308 181.549 258.411 181.4 258.273 180.889C258.102 180.232 257.543 179.427 257.045 179.114C256.812 178.967 255.889 178.87 255.342 178.928C254.514 179.022 253.538 179.515 252.75 180.252C252.117 180.834 251.264 182.096 251.098 182.69Z" fill="black"/>
<path d="M233.952 210.099C233.65 210.674 233.388 211.408 233.313 211.926C233.152 213.028 233.566 214.476 234.255 215.192C234.533 215.478 234.586 215.512 235.013 215.669C235.626 215.892 236.444 215.967 236.762 215.826C237.069 215.692 237.111 215.577 237.238 214.61C237.291 214.198 237.369 213.697 237.414 213.496C237.638 212.551 238.1 211.616 238.776 210.765C239.354 210.036 239.364 209.961 239.027 209.333C238.475 208.295 237.921 207.858 237.103 207.795C236.337 207.744 235.644 208.022 235.033 208.617C234.562 209.071 234.329 209.394 233.952 210.099Z" fill="black"/>
<path d="M270.972 214.093C270.02 215.864 269.553 217.642 269.783 218.641C269.978 219.507 270.596 220.288 271.463 220.768C272.242 221.198 273.136 221.374 274.169 221.297C275.327 221.208 276.217 220.816 277.661 219.779C278.247 219.352 278.514 219.491 278.977 220.45C279.694 221.919 279.539 223.307 278.556 224.234C277.747 225.003 276.687 225.302 275.181 225.179C274.756 225.149 274.334 225.15 274.248 225.193C274.05 225.284 273.771 225.799 273.658 226.272C273.493 226.992 273.829 227.776 274.416 228.041C275.212 228.4 277.267 228.259 278.569 227.763C280.113 227.167 281.498 225.846 282.077 224.421C282.426 223.549 282.508 222.783 282.397 221.42C282.368 221.009 282.343 220.6 282.346 220.513C282.359 220.327 282.344 220.34 283.279 220.052C285.325 219.422 286.818 218.096 287.266 216.513C287.788 214.672 287.585 212.562 286.707 210.746C286.377 210.071 286.15 209.832 285.756 209.754C285.304 209.663 284.698 209.802 284.2 210.099C283.406 210.587 283.38 210.816 283.952 212.482C284.355 213.65 284.423 214.012 284.339 214.523C284.139 215.794 283.366 216.764 282.298 217.073C281.492 217.309 280.03 217.175 279.817 216.856C279.768 216.781 279.742 216.304 279.762 215.708C279.801 214.283 279.644 213.391 279.156 212.334C278.864 211.682 278.507 211.204 277.941 210.692C277.503 210.305 277.435 210.262 276.992 210.095C275.363 209.487 273.897 210.042 272.541 211.775C272.089 212.352 271.21 213.655 270.972 214.093ZM274.04 212.978C274.417 212.731 274.613 212.714 274.828 212.901C275.05 213.1 275.176 213.454 275.181 213.903C275.187 214.776 274.734 216.073 274.229 216.617C273.992 216.876 273.638 217.121 273.285 217.271C273.034 217.374 272.37 217.386 272.03 217.291C271.772 217.219 271.751 217.205 271.736 217.04C271.694 216.695 272.301 215.449 273.171 214.102C273.708 213.259 273.811 213.13 274.04 212.978Z" fill="black"/>
</g>
<mask id="mask3_3067_3123" style="mask-type:luminance" maskUnits="userSpaceOnUse" x="234" y="169" width="61" height="82">
<path d="M278.863 169.72L234.578 241.428L249.964 250.93L294.249 179.222L278.863 169.72Z" fill="white"/>
</mask>
<g mask="url(#mask3_3067_3123)">
<path d="M234.576 241.427L239.705 244.595L241.18 242.206L243.744 243.789L245.221 241.397L247.786 242.982L249.262 240.593L251.825 242.176L253.302 239.784L255.867 241.368L264.723 227.027L262.158 225.443L263.635 223.053L261.071 221.469L262.547 219.079L259.982 217.495L261.459 215.104L258.895 213.521L260.371 211.131L257.806 209.546L260.758 204.767L263.324 206.35L264.799 203.961L267.363 205.544L268.84 203.153L271.405 204.737L272.88 202.347L275.444 203.931L276.921 201.539L279.486 203.123L288.342 188.783L285.777 187.199L287.253 184.807L284.69 183.224L286.166 180.835L283.6 179.251L285.076 176.861L282.513 175.278L283.989 172.886L278.86 169.72L234.576 241.427Z" fill="#1D1D1B"/>
<path d="M249.652 234.226L248.177 236.615L250.74 238.198L252.216 235.809L249.652 234.226Z" fill="white"/>
<path d="M253.692 233.421L252.216 235.811L254.779 237.394L256.256 235.004L253.692 233.421Z" fill="white"/>
<path d="M248.559 230.255L247.083 232.645L249.647 234.228L251.123 231.838L248.559 230.255Z" fill="white"/>
<path d="M252.598 229.446L251.122 231.836L253.686 233.419L255.162 231.029L252.598 229.446Z" fill="white"/>
<path d="M256.645 228.642L255.17 231.032L257.733 232.615L259.209 230.225L256.645 228.642Z" fill="white"/>
<path d="M244.52 231.06L243.044 233.449L245.608 235.032L247.084 232.643L244.52 231.06Z" fill="white"/>
<path d="M273.269 195.982L271.794 198.371L274.357 199.955L275.833 197.565L273.269 195.982Z" fill="white"/>
<path d="M277.309 195.177L275.833 197.567L278.397 199.15L279.873 196.76L277.309 195.177Z" fill="white"/>
<path d="M272.176 192.009L270.701 194.399L273.265 195.982L274.741 193.592L272.176 192.009Z" fill="white"/>
<path d="M276.215 191.203L274.74 193.593L277.304 195.176L278.779 192.787L276.215 191.203Z" fill="white"/>
<path d="M280.262 190.395L278.786 192.785L281.35 194.368L282.826 191.978L280.262 190.395Z" fill="white"/>
<path d="M268.137 192.815L266.661 195.205L269.225 196.788L270.701 194.398L268.137 192.815Z" fill="white"/>
</g>
</g>
</g>
<defs>
<radialGradient id="paint0_radial_3067_3123" cx="0" cy="0" r="1" gradientUnits="userSpaceOnUse" gradientTransform="translate(260.829 384.032) rotate(-46.7139) scale(93.8596 93.8596)">
<stop stop-color="#FAD31F"/>
<stop offset="1" stop-color="#F79A34"/>
</radialGradient>
<radialGradient id="paint1_radial_3067_3123" cx="0" cy="0" r="1" gradientUnits="userSpaceOnUse" gradientTransform="translate(262.406 383.192) rotate(-46.7139) scale(65.7785 65.7785)">
<stop stop-color="#FFF154"/>
<stop offset="1" stop-color="#FAD31F"/>
</radialGradient>
<radialGradient id="paint2_radial_3067_3123" cx="0" cy="0" r="1" gradientUnits="userSpaceOnUse" gradientTransform="translate(263.201 375.504) rotate(1.63616) scale(46.6096 46.6096)">
<stop stop-color="white"/>
<stop offset="1" stop-color="#FFF154"/>
</radialGradient>
<linearGradient id="paint3_linear_3067_3123" x1="333.121" y1="310.892" x2="310.388" y2="372.541" gradientUnits="userSpaceOnUse">
<stop stop-color="#FFFF1A"/>
<stop offset="1" stop-color="#8EB326"/>
</linearGradient>
<linearGradient id="paint4_linear_3067_3123" x1="228.073" y1="372.97" x2="296.591" y2="375.125" gradientUnits="userSpaceOnUse">
<stop stop-color="#567880"/>
<stop offset="0.42" stop-color="#4E6D74"/>
<stop offset="1" stop-color="#40595D"/>
</linearGradient>
<linearGradient id="paint5_linear_3067_3123" x1="233.675" y1="349.466" x2="295.683" y2="351.416" gradientUnits="userSpaceOnUse">
<stop stop-color="#567880"/>
<stop offset="0.42" stop-color="#4E6D74"/>
<stop offset="1" stop-color="#40595D"/>
</linearGradient>
<linearGradient id="paint6_linear_3067_3123" x1="192.468" y1="310.536" x2="211.739" y2="361.489" gradientUnits="userSpaceOnUse">
<stop stop-color="#FFFF1A"/>
<stop offset="1" stop-color="#7A9920"/>
</linearGradient>
<linearGradient id="paint7_linear_3067_3123" x1="209.597" y1="219.125" x2="322.566" y2="222.679" gradientUnits="userSpaceOnUse">
<stop stop-color="#8EBBB6"/>
<stop offset="1" stop-color="#7BA4A3"/>
</linearGradient>
<linearGradient id="paint8_linear_3067_3123" x1="229.378" y1="122.9" x2="308.233" y2="125.38" gradientUnits="userSpaceOnUse">
<stop stop-color="#FFFF1A"/>
<stop offset="1" stop-color="#8EB326"/>
</linearGradient>
<radialGradient id="paint9_radial_3067_3123" cx="0" cy="0" r="1" gradientUnits="userSpaceOnUse" gradientTransform="translate(257.044 191.941) rotate(1.80175) scale(43.8248 45.9344)">
<stop stop-color="#507077"/>
<stop offset="1" stop-color="#40595D"/>
</radialGradient>
<radialGradient id="paint10_radial_3067_3123" cx="0" cy="0" r="1" gradientUnits="userSpaceOnUse" gradientTransform="translate(259.91 204.903) rotate(1.80175) scale(25.75 26.9895)">
<stop stop-color="#68E7F7"/>
<stop offset="1" stop-color="#55BDED"/>
</radialGradient>
<clipPath id="clip0_3067_3123">
<rect width="394" height="351" fill="white" transform="translate(0.273438 304.887) rotate(-50.502)"/>
</clipPath>
</defs>
</svg>
